<?xml version="1.0" encoding="utf-8"?>
<!-- Svg Vector Icons : http://www.onlinewebfonts.com/icon -->
<!DOCTYPE svg PUBLIC "-//W3C//DTD SVG 1.1//EN" "http://www.w3.org/Graphics/SVG/1.1/DTD/svg11.dtd">
<svg version="1.1" xmlns="http://www.w3.org/2000/svg" xmlns:xlink="http://www.w3.org/1999/xlink" x="0px" y="0px" viewBox="0 0 1000 1000" enable-background="new 0 0 1000 1000" xml:space="preserve">
<metadata> Svg Vector Icons : http://www.onlinewebfonts.com/icon </metadata>
<g><path d="M500,10C229.8,10,10,229.8,10,500c0,270.2,219.8,490,490,490c270.2,0,490-219.8,490-490C990,229.8,770.2,10,500,10L500,10L500,10z M500,963.1C244.6,963.1,36.9,755.4,36.9,500S244.6,36.9,500,36.9S963.2,244.6,963.2,500C963.1,755.4,755.4,963.1,500,963.1L500,963.1L500,963.1z"/><path d="M558.2,672.5H441.9v42.2H331.2v31.6h337.6v-31.6H558.2V672.5L558.2,672.5L558.2,672.5L558.2,672.5L558.2,672.5z M710.9,313.9H289.1c-17.4,0-31.6,14.2-31.6,31.6v295.2c0,17.4,14.2,31.6,14.8,31.6h421.8c34.3,0,48.4-14.2,48.4-31.6V345.5C742.5,328,728.4,313.9,710.9,313.9L710.9,313.9L710.9,313.9L710.9,313.9L710.9,313.9z M716.4,633.8c0,6-4.8,10.8-10.8,10.8H294.4c-6,0-10.8-4.9-10.8-10.8V352.4c0-6,4.9-10.8,10.8-10.8h411.1c6,0,10.8,4.9,10.8,10.8V633.8L716.4,633.8L716.4,633.8L716.4,633.8L716.4,633.8z M602.8,610h57.1V443.9h-57.1V610L602.8,610L602.8,610L602.8,610L602.8,610z M511.6,610h57.1V392.8h-57.1V610L511.6,610L511.6,610L511.6,610L511.6,610z M340.4,610h57.1v-63.9h-57.1V610L340.4,610L340.4,610L340.4,610L340.4,610z M420.3,610h57.1V495h-57.1V610L420.3,610L420.3,610L420.3,610L420.3,610z"/></g>
</svg>